<svg width="675" height="676" xmlns="http://www.w3.org/2000/svg" xmlns:xlink="http://www.w3.org/1999/xlink" overflow="hidden"><defs><clipPath id="clip0"><rect x="503" y="28" width="675" height="676"/></clipPath></defs><g clip-path="url(#clip0)" transform="translate(-503 -28)"><path d="M309.375 562.5 295.312 562.5 295.312 534.375 98.4375 534.375 98.4375 562.5 84.375 562.5C68.9062 562.5 56.25 575.156 56.25 590.625 56.25 606.094 68.9062 618.75 84.375 618.75L309.375 618.75C324.844 618.75 337.5 606.094 337.5 590.625 337.5 575.156 324.844 562.5 309.375 562.5Z" transform="matrix(1 0 0 1.00148 503 28)"/><path d="M308.672 422.578C317.109 414.141 317.109 400.781 308.672 393.047L197.578 281.953C189.141 273.516 175.781 273.516 168.047 281.953L140.625 309.375 281.25 450 308.672 422.578Z" transform="matrix(1 0 0 1.00148 503 28)"/><path d="M477.422 224.297C485.859 232.734 499.219 232.734 506.953 224.297L534.375 196.875 393.75 56.25 366.328 83.6719C357.891 92.1094 357.891 105.469 366.328 113.203L477.422 224.297Z" transform="matrix(1 0 0 1.00148 503 28)"/><path d="M611.719 471.094 421.875 281.25 464.062 239.062 351.562 126.562 210.938 267.188 323.438 379.688 379.688 323.438 569.531 513.281C581.484 525.234 599.766 525.234 611.719 513.281 623.672 501.328 623.672 483.047 611.719 471.094Z" transform="matrix(1 0 0 1.00148 503 28)"/></g></svg>